<svg xmlns="http://www.w3.org/2000/svg" width="900" height="420" viewBox="0 0 900 420">
  <defs>
    <linearGradient id="bg" x1="0" y1="0" x2="1" y2="1">
      <stop offset="0%" stop-color="#06080c"/>
      <stop offset="100%" stop-color="#0c1018"/>
    </linearGradient>
    <linearGradient id="glow" x1="0" y1="0" x2="0" y2="1">
      <stop offset="0%" stop-color="#00e5a0" stop-opacity="0.3"/>
      <stop offset="100%" stop-color="#00e5a0" stop-opacity="0"/>
    </linearGradient>
  </defs>
  <rect width="900" height="420" rx="12" fill="url(#bg)"/>
  <rect x="0" y="0" width="900" height="3" rx="1" fill="#00e5a0" opacity="0.6"/>
  
  <!-- Grid pattern -->
  <g opacity="0.06">
    <line x1="0" y1="60" x2="900" y2="60" stroke="#4a5568" stroke-width="0.5"/>
    <line x1="0" y1="120" x2="900" y2="120" stroke="#4a5568" stroke-width="0.5"/>
    <line x1="0" y1="180" x2="900" y2="180" stroke="#4a5568" stroke-width="0.5"/>
    <line x1="0" y1="240" x2="900" y2="240" stroke="#4a5568" stroke-width="0.5"/>
    <line x1="0" y1="300" x2="900" y2="300" stroke="#4a5568" stroke-width="0.5"/>
    <line x1="0" y1="360" x2="900" y2="360" stroke="#4a5568" stroke-width="0.5"/>
    <line x1="150" y1="0" x2="150" y2="420" stroke="#4a5568" stroke-width="0.5"/>
    <line x1="300" y1="0" x2="300" y2="420" stroke="#4a5568" stroke-width="0.5"/>
    <line x1="450" y1="0" x2="450" y2="420" stroke="#4a5568" stroke-width="0.5"/>
    <line x1="600" y1="0" x2="600" y2="420" stroke="#4a5568" stroke-width="0.5"/>
    <line x1="750" y1="0" x2="750" y2="420" stroke="#4a5568" stroke-width="0.5"/>
  </g>

  <!-- Glow effect -->
  <ellipse cx="450" cy="160" rx="300" ry="150" fill="url(#glow)" opacity="0.15"/>

  <!-- ASCII Art Title -->
  <text x="450" y="100" fill="#00e5a0" font-family="JetBrains Mono,monospace" font-size="28" font-weight="700" text-anchor="middle" letter-spacing="2">
    ███████╗███████╗██╗  ██╗ █████╗ ██████╗  █████╗
  </text>
  <text x="450" y="128" fill="#00e5a0" font-family="JetBrains Mono,monospace" font-size="28" font-weight="700" text-anchor="middle" letter-spacing="2">
    ██╔════╝╚════██║██║  ██║██╔══██╗██╔══██╗██╔══██╗
  </text>
  <text x="450" y="156" fill="#00e5a0" font-family="JetBrains Mono,monospace" font-size="28" font-weight="700" text-anchor="middle" letter-spacing="2">
    ███████╗    ██╔╝███████║███████║██████╔╝███████║
  </text>
  <text x="450" y="184" fill="#00e5a0" font-family="JetBrains Mono,monospace" font-size="28" font-weight="700" text-anchor="middle" letter-spacing="2">
    ╚════██║   ██╔╝ ╚════██║██╔══██║██╔══██╗██╔══██║
  </text>
  <text x="450" y="212" fill="#00e5a0" font-family="JetBrains Mono,monospace" font-size="28" font-weight="700" text-anchor="middle" letter-spacing="2">
    ███████║   ██║       ██║██████╔╝██║  ██║
  </text>
  <text x="450" y="240" fill="#00e5a0" font-family="JetBrains Mono,monospace" font-size="28" font-weight="700" text-anchor="middle" letter-spacing="2">
    ╚══════╝   ╚═╝       ╚═╝╚═════╝ ╚═╝  ╚═╝
  </text>

  <!-- Subtitle -->
  <text x="450" y="290" fill="#e8edf5" font-family="JetBrains Mono,monospace" font-size="16" text-anchor="middle" letter-spacing="4">Cloud Privilege Escalation &amp; Post-Exploitation</text>
  
  <!-- Badges row -->
  <rect x="200" y="320" width="90" height="26" rx="13" fill="#00e5a020" stroke="#00e5a050" stroke-width="1"/>
  <text x="245" y="337" fill="#00e5a0" font-family="JetBrains Mono,monospace" font-size="11" text-anchor="middle">v1.0.0</text>
  
  <rect x="305" y="320" width="80" height="26" rx="13" fill="#3b82f620" stroke="#3b82f650" stroke-width="1"/>
  <text x="345" y="337" fill="#3b82f6" font-family="JetBrains Mono,monospace" font-size="11" text-anchor="middle">Bash</text>
  
  <rect x="400" y="320" width="100" height="26" rx="13" fill="#a855f720" stroke="#a855f750" stroke-width="1"/>
  <text x="450" y="337" fill="#a855f7" font-family="JetBrains Mono,monospace" font-size="11" text-anchor="middle">Multi-Cloud</text>
  
  <rect x="515" y="320" width="80" height="26" rx="13" fill="#fbbf2420" stroke="#fbbf2450" stroke-width="1"/>
  <text x="555" y="337" fill="#fbbf24" font-family="JetBrains Mono,monospace" font-size="11" text-anchor="middle">MIT</text>
  
  <rect x="610" y="320" width="90" height="26" rx="13" fill="#ff405720" stroke="#ff405750" stroke-width="1"/>
  <text x="655" y="337" fill="#ff4057" font-family="JetBrains Mono,monospace" font-size="11" text-anchor="middle">Ethical</text>

  <!-- Author -->
  <text x="450" y="385" fill="#3d4f6a" font-family="JetBrains Mono,monospace" font-size="12" text-anchor="middle">by @SiteQ8 — Ali AlEnezi</text>
</svg>
